<mxfile host="app.diagrams.net" agent="Mozilla/5.0 (Windows NT 10.0; Win64; x64) AppleWebKit/537.36 (KHTML, like Gecko) Chrome/135.0.0.0 Safari/537.36" version="26.2.12">
  <diagram name="Page-1" id="NEua9ehFu8R7c1ge1JFA">
    <mxGraphModel dx="2341" dy="753" grid="1" gridSize="10" guides="1" tooltips="1" connect="1" arrows="1" fold="1" page="1" pageScale="1" pageWidth="850" pageHeight="1100" math="0" shadow="0">
      <root>
        <mxCell id="0" />
        <mxCell id="1" parent="0" />
        <mxCell id="7wwZpeAcug36o6S7J7hy-3" value="" style="edgeStyle=orthogonalEdgeStyle;rounded=0;orthogonalLoop=1;jettySize=auto;html=1;" edge="1" parent="1" source="7wwZpeAcug36o6S7J7hy-1" target="7wwZpeAcug36o6S7J7hy-2">
          <mxGeometry relative="1" as="geometry" />
        </mxCell>
        <mxCell id="7wwZpeAcug36o6S7J7hy-1" value="Start" style="rounded=0;whiteSpace=wrap;html=1;" vertex="1" parent="1">
          <mxGeometry x="365" y="40" width="120" height="60" as="geometry" />
        </mxCell>
        <mxCell id="7wwZpeAcug36o6S7J7hy-5" value="" style="edgeStyle=orthogonalEdgeStyle;rounded=0;orthogonalLoop=1;jettySize=auto;html=1;" edge="1" parent="1" source="7wwZpeAcug36o6S7J7hy-2" target="7wwZpeAcug36o6S7J7hy-4">
          <mxGeometry relative="1" as="geometry" />
        </mxCell>
        <mxCell id="7wwZpeAcug36o6S7J7hy-2" value="Welcome Prompt" style="rounded=0;whiteSpace=wrap;html=1;" vertex="1" parent="1">
          <mxGeometry x="365" y="160" width="120" height="60" as="geometry" />
        </mxCell>
        <mxCell id="7wwZpeAcug36o6S7J7hy-7" value="" style="edgeStyle=orthogonalEdgeStyle;rounded=0;orthogonalLoop=1;jettySize=auto;html=1;" edge="1" parent="1" source="7wwZpeAcug36o6S7J7hy-45" target="7wwZpeAcug36o6S7J7hy-6">
          <mxGeometry relative="1" as="geometry" />
        </mxCell>
        <mxCell id="7wwZpeAcug36o6S7J7hy-19" value="" style="edgeStyle=orthogonalEdgeStyle;rounded=0;orthogonalLoop=1;jettySize=auto;html=1;" edge="1" parent="1" source="7wwZpeAcug36o6S7J7hy-43" target="7wwZpeAcug36o6S7J7hy-18">
          <mxGeometry relative="1" as="geometry" />
        </mxCell>
        <mxCell id="7wwZpeAcug36o6S7J7hy-4" value="Sign In/Sign Up" style="ellipse;whiteSpace=wrap;html=1;rounded=0;" vertex="1" parent="1">
          <mxGeometry x="385" y="290" width="80" height="80" as="geometry" />
        </mxCell>
        <mxCell id="7wwZpeAcug36o6S7J7hy-8" style="edgeStyle=orthogonalEdgeStyle;rounded=0;orthogonalLoop=1;jettySize=auto;html=1;entryX=0.5;entryY=1;entryDx=0;entryDy=0;" edge="1" parent="1" source="7wwZpeAcug36o6S7J7hy-9" target="7wwZpeAcug36o6S7J7hy-4">
          <mxGeometry relative="1" as="geometry" />
        </mxCell>
        <mxCell id="7wwZpeAcug36o6S7J7hy-12" style="edgeStyle=orthogonalEdgeStyle;rounded=0;orthogonalLoop=1;jettySize=auto;html=1;" edge="1" parent="1" source="7wwZpeAcug36o6S7J7hy-6">
          <mxGeometry relative="1" as="geometry">
            <mxPoint x="460" y="450" as="targetPoint" />
          </mxGeometry>
        </mxCell>
        <mxCell id="7wwZpeAcug36o6S7J7hy-14" style="edgeStyle=orthogonalEdgeStyle;rounded=0;orthogonalLoop=1;jettySize=auto;html=1;" edge="1" parent="1" source="7wwZpeAcug36o6S7J7hy-6" target="7wwZpeAcug36o6S7J7hy-13">
          <mxGeometry relative="1" as="geometry" />
        </mxCell>
        <mxCell id="7wwZpeAcug36o6S7J7hy-6" value="Customer Onboarding" style="whiteSpace=wrap;html=1;rounded=0;" vertex="1" parent="1">
          <mxGeometry x="660" y="420" width="120" height="60" as="geometry" />
        </mxCell>
        <mxCell id="7wwZpeAcug36o6S7J7hy-9" value="Success" style="text;html=1;align=center;verticalAlign=middle;whiteSpace=wrap;rounded=0;" vertex="1" parent="1">
          <mxGeometry x="395" y="435" width="60" height="30" as="geometry" />
        </mxCell>
        <mxCell id="7wwZpeAcug36o6S7J7hy-31" style="edgeStyle=orthogonalEdgeStyle;rounded=0;orthogonalLoop=1;jettySize=auto;html=1;entryX=1;entryY=0.5;entryDx=0;entryDy=0;" edge="1" parent="1" source="7wwZpeAcug36o6S7J7hy-13" target="7wwZpeAcug36o6S7J7hy-28">
          <mxGeometry relative="1" as="geometry">
            <Array as="points">
              <mxPoint x="720" y="780" />
            </Array>
          </mxGeometry>
        </mxCell>
        <mxCell id="7wwZpeAcug36o6S7J7hy-13" value="Fail" style="text;html=1;align=center;verticalAlign=middle;whiteSpace=wrap;rounded=0;" vertex="1" parent="1">
          <mxGeometry x="690" y="560" width="60" height="30" as="geometry" />
        </mxCell>
        <mxCell id="7wwZpeAcug36o6S7J7hy-15" value="Logging" style="shape=cylinder3;whiteSpace=wrap;html=1;boundedLbl=1;backgroundOutline=1;size=15;" vertex="1" parent="1">
          <mxGeometry x="840" y="70" width="60" height="80" as="geometry" />
        </mxCell>
        <mxCell id="7wwZpeAcug36o6S7J7hy-16" value="" style="endArrow=none;dashed=1;html=1;dashPattern=1 3;strokeWidth=2;rounded=0;exitX=1;exitY=0;exitDx=0;exitDy=0;entryX=0;entryY=0.5;entryDx=0;entryDy=0;entryPerimeter=0;" edge="1" parent="1" source="7wwZpeAcug36o6S7J7hy-4" target="7wwZpeAcug36o6S7J7hy-15">
          <mxGeometry width="50" height="50" relative="1" as="geometry">
            <mxPoint x="400" y="300" as="sourcePoint" />
            <mxPoint x="450" y="250" as="targetPoint" />
          </mxGeometry>
        </mxCell>
        <mxCell id="7wwZpeAcug36o6S7J7hy-17" value="" style="endArrow=none;dashed=1;html=1;dashPattern=1 3;strokeWidth=2;rounded=0;exitX=1;exitY=0.5;exitDx=0;exitDy=0;entryX=0.5;entryY=1;entryDx=0;entryDy=0;entryPerimeter=0;" edge="1" parent="1" source="7wwZpeAcug36o6S7J7hy-6" target="7wwZpeAcug36o6S7J7hy-15">
          <mxGeometry width="50" height="50" relative="1" as="geometry">
            <mxPoint x="400" y="300" as="sourcePoint" />
            <mxPoint x="450" y="250" as="targetPoint" />
          </mxGeometry>
        </mxCell>
        <mxCell id="7wwZpeAcug36o6S7J7hy-25" value="" style="edgeStyle=orthogonalEdgeStyle;rounded=0;orthogonalLoop=1;jettySize=auto;html=1;exitX=0;exitY=0.5;exitDx=0;exitDy=0;" edge="1" parent="1" source="7wwZpeAcug36o6S7J7hy-18" target="7wwZpeAcug36o6S7J7hy-24">
          <mxGeometry relative="1" as="geometry">
            <mxPoint x="40" y="330" as="sourcePoint" />
          </mxGeometry>
        </mxCell>
        <mxCell id="7wwZpeAcug36o6S7J7hy-27" value="" style="edgeStyle=orthogonalEdgeStyle;rounded=0;orthogonalLoop=1;jettySize=auto;html=1;" edge="1" parent="1" source="7wwZpeAcug36o6S7J7hy-18" target="7wwZpeAcug36o6S7J7hy-26">
          <mxGeometry relative="1" as="geometry" />
        </mxCell>
        <mxCell id="7wwZpeAcug36o6S7J7hy-18" value="Banking Operations/ Settings" style="ellipse;whiteSpace=wrap;html=1;rounded=0;" vertex="1" parent="1">
          <mxGeometry x="90" y="290" width="80" height="80" as="geometry" />
        </mxCell>
        <mxCell id="7wwZpeAcug36o6S7J7hy-24" value="Settings" style="whiteSpace=wrap;html=1;rounded=0;" vertex="1" parent="1">
          <mxGeometry x="-160" y="435" width="120" height="60" as="geometry" />
        </mxCell>
        <mxCell id="7wwZpeAcug36o6S7J7hy-34" style="edgeStyle=orthogonalEdgeStyle;rounded=0;orthogonalLoop=1;jettySize=auto;html=1;entryX=0;entryY=0.5;entryDx=0;entryDy=0;" edge="1" parent="1" source="7wwZpeAcug36o6S7J7hy-26" target="7wwZpeAcug36o6S7J7hy-28">
          <mxGeometry relative="1" as="geometry">
            <Array as="points">
              <mxPoint x="130" y="780" />
            </Array>
          </mxGeometry>
        </mxCell>
        <mxCell id="7wwZpeAcug36o6S7J7hy-26" value="Banking Operations" style="whiteSpace=wrap;html=1;rounded=0;" vertex="1" parent="1">
          <mxGeometry x="70" y="435" width="120" height="60" as="geometry" />
        </mxCell>
        <mxCell id="7wwZpeAcug36o6S7J7hy-30" value="" style="edgeStyle=orthogonalEdgeStyle;rounded=0;orthogonalLoop=1;jettySize=auto;html=1;" edge="1" parent="1" source="7wwZpeAcug36o6S7J7hy-28" target="7wwZpeAcug36o6S7J7hy-29">
          <mxGeometry relative="1" as="geometry" />
        </mxCell>
        <mxCell id="7wwZpeAcug36o6S7J7hy-28" value="Greeting Msg" style="rounded=0;whiteSpace=wrap;html=1;" vertex="1" parent="1">
          <mxGeometry x="365" y="750" width="120" height="60" as="geometry" />
        </mxCell>
        <mxCell id="7wwZpeAcug36o6S7J7hy-29" value="End" style="rounded=0;whiteSpace=wrap;html=1;" vertex="1" parent="1">
          <mxGeometry x="365" y="900" width="120" height="60" as="geometry" />
        </mxCell>
        <mxCell id="7wwZpeAcug36o6S7J7hy-36" value="" style="endArrow=none;dashed=1;html=1;dashPattern=1 3;strokeWidth=2;rounded=0;exitX=0.5;exitY=1;exitDx=0;exitDy=0;" edge="1" parent="1" source="7wwZpeAcug36o6S7J7hy-24">
          <mxGeometry width="50" height="50" relative="1" as="geometry">
            <mxPoint x="400" y="680" as="sourcePoint" />
            <mxPoint x="130" y="780" as="targetPoint" />
            <Array as="points">
              <mxPoint x="-100" y="780" />
            </Array>
          </mxGeometry>
        </mxCell>
        <mxCell id="7wwZpeAcug36o6S7J7hy-37" value="" style="curved=1;endArrow=classic;html=1;rounded=0;exitX=0;exitY=0.5;exitDx=0;exitDy=0;" edge="1" parent="1" source="7wwZpeAcug36o6S7J7hy-24">
          <mxGeometry width="50" height="50" relative="1" as="geometry">
            <mxPoint x="500" y="420" as="sourcePoint" />
            <mxPoint x="390" y="310" as="targetPoint" />
            <Array as="points">
              <mxPoint x="-250" y="190" />
              <mxPoint x="-260" y="60" />
            </Array>
          </mxGeometry>
        </mxCell>
        <mxCell id="7wwZpeAcug36o6S7J7hy-39" value="" style="endArrow=none;dashed=1;html=1;rounded=0;entryX=0.5;entryY=1;entryDx=0;entryDy=0;exitX=0.5;exitY=0;exitDx=0;exitDy=0;" edge="1" parent="1" source="7wwZpeAcug36o6S7J7hy-28" target="7wwZpeAcug36o6S7J7hy-9">
          <mxGeometry width="50" height="50" relative="1" as="geometry">
            <mxPoint x="250" y="560" as="sourcePoint" />
            <mxPoint x="300" y="510" as="targetPoint" />
          </mxGeometry>
        </mxCell>
        <mxCell id="7wwZpeAcug36o6S7J7hy-40" value="Logging" style="shape=cylinder3;whiteSpace=wrap;html=1;boundedLbl=1;backgroundOutline=1;size=15;" vertex="1" parent="1">
          <mxGeometry x="-10" y="590" width="60" height="80" as="geometry" />
        </mxCell>
        <mxCell id="7wwZpeAcug36o6S7J7hy-41" value="" style="endArrow=none;dashed=1;html=1;dashPattern=1 3;strokeWidth=2;rounded=0;exitX=0.5;exitY=1;exitDx=0;exitDy=0;entryX=0;entryY=0.5;entryDx=0;entryDy=0;entryPerimeter=0;" edge="1" parent="1" source="7wwZpeAcug36o6S7J7hy-24" target="7wwZpeAcug36o6S7J7hy-40">
          <mxGeometry width="50" height="50" relative="1" as="geometry">
            <mxPoint x="320" y="560" as="sourcePoint" />
            <mxPoint x="370" y="510" as="targetPoint" />
          </mxGeometry>
        </mxCell>
        <mxCell id="7wwZpeAcug36o6S7J7hy-42" value="" style="endArrow=none;dashed=1;html=1;rounded=0;exitX=1;exitY=0.5;exitDx=0;exitDy=0;exitPerimeter=0;entryX=0.5;entryY=1;entryDx=0;entryDy=0;" edge="1" parent="1" source="7wwZpeAcug36o6S7J7hy-40" target="7wwZpeAcug36o6S7J7hy-26">
          <mxGeometry width="50" height="50" relative="1" as="geometry">
            <mxPoint x="320" y="560" as="sourcePoint" />
            <mxPoint x="370" y="510" as="targetPoint" />
          </mxGeometry>
        </mxCell>
        <mxCell id="7wwZpeAcug36o6S7J7hy-44" value="" style="edgeStyle=orthogonalEdgeStyle;rounded=0;orthogonalLoop=1;jettySize=auto;html=1;" edge="1" parent="1" source="7wwZpeAcug36o6S7J7hy-4" target="7wwZpeAcug36o6S7J7hy-43">
          <mxGeometry relative="1" as="geometry">
            <mxPoint x="385" y="330" as="sourcePoint" />
            <mxPoint x="170" y="330" as="targetPoint" />
          </mxGeometry>
        </mxCell>
        <mxCell id="7wwZpeAcug36o6S7J7hy-43" value="Sign In" style="text;html=1;align=center;verticalAlign=middle;whiteSpace=wrap;rounded=0;" vertex="1" parent="1">
          <mxGeometry x="250" y="315" width="60" height="30" as="geometry" />
        </mxCell>
        <mxCell id="7wwZpeAcug36o6S7J7hy-46" value="" style="edgeStyle=orthogonalEdgeStyle;rounded=0;orthogonalLoop=1;jettySize=auto;html=1;" edge="1" parent="1" source="7wwZpeAcug36o6S7J7hy-4" target="7wwZpeAcug36o6S7J7hy-45">
          <mxGeometry relative="1" as="geometry">
            <mxPoint x="465" y="330" as="sourcePoint" />
            <mxPoint x="720" y="420" as="targetPoint" />
          </mxGeometry>
        </mxCell>
        <mxCell id="7wwZpeAcug36o6S7J7hy-45" value="Sign Up" style="text;html=1;align=center;verticalAlign=middle;whiteSpace=wrap;rounded=0;" vertex="1" parent="1">
          <mxGeometry x="590" y="315" width="60" height="30" as="geometry" />
        </mxCell>
      </root>
    </mxGraphModel>
  </diagram>
</mxfile>
